<?xml version="1.0" encoding="UTF-8"?>
<svg width="138px" height="196px" viewBox="0 0 138 196" version="1.1" xmlns="http://www.w3.org/2000/svg" xmlns:xlink="http://www.w3.org/1999/xlink">
    <!-- Generator: Sketch 56.2 (81672) - https://sketch.com -->
    <title>Group 4</title>
    <desc>Created with Sketch.</desc>
    <g id="Page-1" stroke="none" stroke-width="1" fill="none" fill-rule="evenodd" opacity="0.467331659" stroke-linecap="round" stroke-linejoin="round">
        <g id="Desktop-HD" transform="translate(-1167.000000, -694.000000)" stroke="#D8D8D8" stroke-width="24">
            <g id="Group-4" transform="translate(1179.000000, 706.000000)">
                <path d="M114,2 L114,132.171262 C114,152.075135 109.563176,164.900252 100.183843,168.700491 C90.8045112,172.50073 61.4828813,173.917508 51.3617683,168.004885 C41.2406554,162.092262 37,152.075135 37,132.171262 L37,33.4311736" id="Rectangle-Copy-4"></path>
                <path d="M77,0 L77,130.171262 C77,150.075135 72.5631757,162.900252 63.1838435,166.700491 C53.8045112,170.50073 24.4828813,171.917508 14.3617683,166.004885 C4.24065539,160.092262 0,150.075135 0,130.171262 L0,31.4311736" id="Rectangle-Copy-3" transform="translate(38.500000, 85.000000) scale(-1, -1) translate(-38.500000, -85.000000) "></path>
            </g>
        </g>
    </g>
</svg>